# xmcd
#
# Track frame offsets: 
#        150
#        14061
#        30244
#        47118
#        59447
#        75851
#        91592
#        104300
#        118582
#        134665
#        150322
#        163475
#
# Disc length: 2400 seconds
#
# Revision: 0
# Processed by: cddbd v1.5.2PL0 Copyright (c) Steve Scherf et al.
# Submitted via: ExactAudioCopy v0.99pb4
#
DISCID=8f095e0c
DTITLE=Tim McDonald - Lucky You
DYEAR=2009
DGENRE=Country
TTITLE0=Come Hell Or High Water
TTITLE1=Lucky You
TTITLE2=Let Me Love You
TTITLE3=Deer
TTITLE4=Dauphin Island
TTITLE5=Who The Hell Am I
TTITLE6=That's Her Favorite Song
TTITLE7=You Drive Me To Drinkin'
TTITLE8=Welcome Home
TTITLE9=Mi Por Favor No More Tequila
TTITLE10=Counting My Fingers
TTITLE11=Pitts Avenue
EXTD=
EXTT0=
EXTT1=
EXTT2=
EXTT3=
EXTT4=
EXTT5=
EXTT6=
EXTT7=
EXTT8=
EXTT9=
EXTT10=
EXTT11=
PLAYORDER=
